<mxfile host="app.diagrams.net" modified="2021-05-31T02:49:14.768Z" agent="5.0 (Windows NT 10.0; Win64; x64) AppleWebKit/537.36 (KHTML, like Gecko) Chrome/91.0.4472.77 Safari/537.36 Edg/91.0.864.37" etag="RDP4d9cFKz20DuD2JJT9" version="14.7.3" type="github">
  <diagram id="RHk_pySFA4WUQYIGAy_g" name="Page-1">
    <mxGraphModel dx="6440" dy="3587" grid="1" gridSize="10" guides="1" tooltips="1" connect="1" arrows="1" fold="1" page="1" pageScale="1" pageWidth="850" pageHeight="1100" math="0" shadow="0">
      <root>
        <mxCell id="0" />
        <mxCell id="1" parent="0" />
        <mxCell id="jMAbbTSeN2lzTfF_vfag-72" value="" style="rounded=0;whiteSpace=wrap;html=1;" vertex="1" parent="1">
          <mxGeometry x="630" y="630" width="480" height="460" as="geometry" />
        </mxCell>
        <mxCell id="jMAbbTSeN2lzTfF_vfag-3" value="" style="whiteSpace=wrap;html=1;shape=mxgraph.basic.cloud_rect" vertex="1" parent="1">
          <mxGeometry x="-190" y="100" width="640" height="320" as="geometry" />
        </mxCell>
        <mxCell id="jMAbbTSeN2lzTfF_vfag-4" value="Input Data" style="rounded=0;whiteSpace=wrap;html=1;" vertex="1" parent="1">
          <mxGeometry x="145" y="330" width="120" height="60" as="geometry" />
        </mxCell>
        <mxCell id="jMAbbTSeN2lzTfF_vfag-5" value="Conditional Rule in Rule Chains" style="rounded=0;whiteSpace=wrap;html=1;" vertex="1" parent="1">
          <mxGeometry x="-100" y="180" width="120" height="60" as="geometry" />
        </mxCell>
        <mxCell id="jMAbbTSeN2lzTfF_vfag-6" value="NoSQL Database" style="shape=cylinder3;whiteSpace=wrap;html=1;boundedLbl=1;backgroundOutline=1;size=15;" vertex="1" parent="1">
          <mxGeometry x="165" y="170" width="80" height="80" as="geometry" />
        </mxCell>
        <mxCell id="jMAbbTSeN2lzTfF_vfag-7" value="" style="endArrow=classic;html=1;exitX=0.5;exitY=0;exitDx=0;exitDy=0;" edge="1" parent="1" source="jMAbbTSeN2lzTfF_vfag-4">
          <mxGeometry width="50" height="50" relative="1" as="geometry">
            <mxPoint x="170" y="550" as="sourcePoint" />
            <mxPoint x="205" y="250" as="targetPoint" />
          </mxGeometry>
        </mxCell>
        <mxCell id="jMAbbTSeN2lzTfF_vfag-8" value="" style="endArrow=classic;html=1;entryX=1;entryY=0.5;entryDx=0;entryDy=0;exitX=0;exitY=0.5;exitDx=0;exitDy=0;exitPerimeter=0;" edge="1" parent="1" source="jMAbbTSeN2lzTfF_vfag-6" target="jMAbbTSeN2lzTfF_vfag-5">
          <mxGeometry width="50" height="50" relative="1" as="geometry">
            <mxPoint x="450" y="650" as="sourcePoint" />
            <mxPoint x="500" y="600" as="targetPoint" />
          </mxGeometry>
        </mxCell>
        <mxCell id="jMAbbTSeN2lzTfF_vfag-10" value="" style="rounded=0;whiteSpace=wrap;html=1;" vertex="1" parent="1">
          <mxGeometry x="-125" y="-430" width="380" height="280" as="geometry" />
        </mxCell>
        <mxCell id="jMAbbTSeN2lzTfF_vfag-13" value="" style="rounded=1;whiteSpace=wrap;html=1;" vertex="1" parent="1">
          <mxGeometry x="-850" y="-610" width="480" height="270" as="geometry" />
        </mxCell>
        <mxCell id="jMAbbTSeN2lzTfF_vfag-14" value="" style="rounded=1;whiteSpace=wrap;html=1;" vertex="1" parent="1">
          <mxGeometry x="-960" y="-280" width="440" height="190" as="geometry" />
        </mxCell>
        <mxCell id="jMAbbTSeN2lzTfF_vfag-15" value="Django Web Application" style="rounded=0;whiteSpace=wrap;html=1;" vertex="1" parent="1">
          <mxGeometry x="-530" y="-450" width="120" height="60" as="geometry" />
        </mxCell>
        <mxCell id="jMAbbTSeN2lzTfF_vfag-16" value="&lt;span&gt;MySQL Database&lt;/span&gt;&lt;br&gt;&lt;span&gt;(MariaDB)&lt;/span&gt;" style="shape=cylinder;whiteSpace=wrap;html=1;boundedLbl=1;backgroundOutline=1;" vertex="1" parent="1">
          <mxGeometry x="-670" y="-590" width="80" height="90" as="geometry" />
        </mxCell>
        <mxCell id="jMAbbTSeN2lzTfF_vfag-17" value="Plant Monitoring Main Script" style="rounded=0;whiteSpace=wrap;html=1;" vertex="1" parent="1">
          <mxGeometry x="-800" y="-450" width="120" height="60" as="geometry" />
        </mxCell>
        <mxCell id="jMAbbTSeN2lzTfF_vfag-18" value="Arduino Sketch" style="rounded=0;whiteSpace=wrap;html=1;" vertex="1" parent="1">
          <mxGeometry x="-800" y="-260" width="120" height="60" as="geometry" />
        </mxCell>
        <mxCell id="jMAbbTSeN2lzTfF_vfag-19" value="" style="endArrow=classic;html=1;entryX=1;entryY=0.75;entryDx=0;entryDy=0;exitX=0;exitY=0.75;exitDx=0;exitDy=0;" edge="1" parent="1" source="jMAbbTSeN2lzTfF_vfag-15" target="jMAbbTSeN2lzTfF_vfag-17">
          <mxGeometry width="50" height="50" relative="1" as="geometry">
            <mxPoint x="-440" y="-270" as="sourcePoint" />
            <mxPoint x="-390" y="-320" as="targetPoint" />
          </mxGeometry>
        </mxCell>
        <mxCell id="jMAbbTSeN2lzTfF_vfag-20" value="" style="endArrow=classic;html=1;exitX=0.5;exitY=0;exitDx=0;exitDy=0;entryX=0;entryY=0.5;entryDx=0;entryDy=0;" edge="1" parent="1" source="jMAbbTSeN2lzTfF_vfag-17" target="jMAbbTSeN2lzTfF_vfag-16">
          <mxGeometry width="50" height="50" relative="1" as="geometry">
            <mxPoint x="-780" y="-480" as="sourcePoint" />
            <mxPoint x="-730" y="-530" as="targetPoint" />
            <Array as="points">
              <mxPoint x="-740" y="-545" />
            </Array>
          </mxGeometry>
        </mxCell>
        <mxCell id="jMAbbTSeN2lzTfF_vfag-21" value="" style="endArrow=classic;html=1;exitX=1;exitY=0.5;exitDx=0;exitDy=0;entryX=0.5;entryY=0;entryDx=0;entryDy=0;" edge="1" parent="1" source="jMAbbTSeN2lzTfF_vfag-16" target="jMAbbTSeN2lzTfF_vfag-15">
          <mxGeometry width="50" height="50" relative="1" as="geometry">
            <mxPoint x="-490" y="-490" as="sourcePoint" />
            <mxPoint x="-440" y="-540" as="targetPoint" />
            <Array as="points">
              <mxPoint x="-470" y="-545" />
            </Array>
          </mxGeometry>
        </mxCell>
        <mxCell id="jMAbbTSeN2lzTfF_vfag-22" value="" style="endArrow=classic;html=1;exitX=0.75;exitY=1;exitDx=0;exitDy=0;entryX=0.75;entryY=0;entryDx=0;entryDy=0;" edge="1" parent="1" source="jMAbbTSeN2lzTfF_vfag-17" target="jMAbbTSeN2lzTfF_vfag-18">
          <mxGeometry width="50" height="50" relative="1" as="geometry">
            <mxPoint x="-760" y="-290" as="sourcePoint" />
            <mxPoint x="-740" y="-260" as="targetPoint" />
          </mxGeometry>
        </mxCell>
        <mxCell id="jMAbbTSeN2lzTfF_vfag-23" value="Store Sensor Data" style="text;html=1;strokeColor=none;fillColor=none;align=center;verticalAlign=middle;whiteSpace=wrap;rounded=0;" vertex="1" parent="1">
          <mxGeometry x="-860" y="-500" width="130" height="20" as="geometry" />
        </mxCell>
        <mxCell id="jMAbbTSeN2lzTfF_vfag-24" value="" style="endArrow=classic;html=1;entryX=0.25;entryY=1;entryDx=0;entryDy=0;exitX=0.25;exitY=0;exitDx=0;exitDy=0;" edge="1" parent="1" source="jMAbbTSeN2lzTfF_vfag-18" target="jMAbbTSeN2lzTfF_vfag-17">
          <mxGeometry width="50" height="50" relative="1" as="geometry">
            <mxPoint x="-820" y="-280" as="sourcePoint" />
            <mxPoint x="-770" y="-330" as="targetPoint" />
          </mxGeometry>
        </mxCell>
        <mxCell id="jMAbbTSeN2lzTfF_vfag-25" value="Query Sensor Data and display in webpage" style="text;html=1;strokeColor=none;fillColor=none;align=center;verticalAlign=middle;whiteSpace=wrap;rounded=0;" vertex="1" parent="1">
          <mxGeometry x="-470" y="-500" width="100" height="20" as="geometry" />
        </mxCell>
        <mxCell id="jMAbbTSeN2lzTfF_vfag-26" value="Send Manual Trigger" style="text;html=1;strokeColor=none;fillColor=none;align=center;verticalAlign=middle;whiteSpace=wrap;rounded=0;" vertex="1" parent="1">
          <mxGeometry x="-670" y="-430" width="130" height="20" as="geometry" />
        </mxCell>
        <mxCell id="jMAbbTSeN2lzTfF_vfag-27" value="Send Actuator Commands" style="text;html=1;strokeColor=none;fillColor=none;align=center;verticalAlign=middle;whiteSpace=wrap;rounded=0;" vertex="1" parent="1">
          <mxGeometry x="-725" y="-380" width="105" height="20" as="geometry" />
        </mxCell>
        <mxCell id="jMAbbTSeN2lzTfF_vfag-28" value="Send Sensor Data" style="text;html=1;strokeColor=none;fillColor=none;align=center;verticalAlign=middle;whiteSpace=wrap;rounded=0;" vertex="1" parent="1">
          <mxGeometry x="-850" y="-320" width="80" height="20" as="geometry" />
        </mxCell>
        <mxCell id="jMAbbTSeN2lzTfF_vfag-29" value="Sensors" style="rounded=0;whiteSpace=wrap;html=1;" vertex="1" parent="1">
          <mxGeometry x="-705" y="-170" width="120" height="60" as="geometry" />
        </mxCell>
        <mxCell id="jMAbbTSeN2lzTfF_vfag-30" value="Actuators" style="rounded=0;whiteSpace=wrap;html=1;" vertex="1" parent="1">
          <mxGeometry x="-900" y="-170" width="120" height="60" as="geometry" />
        </mxCell>
        <mxCell id="jMAbbTSeN2lzTfF_vfag-31" value="" style="endArrow=classic;html=1;entryX=1;entryY=0.5;entryDx=0;entryDy=0;exitX=0.75;exitY=0;exitDx=0;exitDy=0;" edge="1" parent="1" source="jMAbbTSeN2lzTfF_vfag-29" target="jMAbbTSeN2lzTfF_vfag-18">
          <mxGeometry width="50" height="50" relative="1" as="geometry">
            <mxPoint x="-540" y="-170" as="sourcePoint" />
            <mxPoint x="-490" y="-220" as="targetPoint" />
            <Array as="points">
              <mxPoint x="-615" y="-230" />
            </Array>
          </mxGeometry>
        </mxCell>
        <mxCell id="jMAbbTSeN2lzTfF_vfag-32" value="" style="endArrow=classic;html=1;exitX=0;exitY=0.5;exitDx=0;exitDy=0;entryX=0.5;entryY=0;entryDx=0;entryDy=0;" edge="1" parent="1" source="jMAbbTSeN2lzTfF_vfag-18" target="jMAbbTSeN2lzTfF_vfag-30">
          <mxGeometry width="50" height="50" relative="1" as="geometry">
            <mxPoint x="-900" y="-210" as="sourcePoint" />
            <mxPoint x="-850" y="-260" as="targetPoint" />
            <Array as="points">
              <mxPoint x="-840" y="-230" />
            </Array>
          </mxGeometry>
        </mxCell>
        <mxCell id="jMAbbTSeN2lzTfF_vfag-33" value="Receive Sensor Data" style="text;html=1;strokeColor=none;fillColor=none;align=center;verticalAlign=middle;whiteSpace=wrap;rounded=0;" vertex="1" parent="1">
          <mxGeometry x="-620" y="-210" width="100" height="20" as="geometry" />
        </mxCell>
        <mxCell id="jMAbbTSeN2lzTfF_vfag-34" value="Perform actuation commands" style="text;html=1;strokeColor=none;fillColor=none;align=center;verticalAlign=middle;whiteSpace=wrap;rounded=0;" vertex="1" parent="1">
          <mxGeometry x="-940" y="-220" width="100" height="20" as="geometry" />
        </mxCell>
        <mxCell id="jMAbbTSeN2lzTfF_vfag-35" value="&lt;font style=&quot;font-size: 15px&quot;&gt;&lt;b&gt;Raspberry Pi&lt;/b&gt;&lt;/font&gt;" style="text;html=1;strokeColor=none;fillColor=none;align=center;verticalAlign=middle;whiteSpace=wrap;rounded=0;" vertex="1" parent="1">
          <mxGeometry x="-820" y="-600" width="110" height="20" as="geometry" />
        </mxCell>
        <mxCell id="jMAbbTSeN2lzTfF_vfag-36" value="&lt;font style=&quot;font-size: 15px&quot;&gt;&lt;b&gt;Arduino&lt;/b&gt;&lt;/font&gt;" style="text;html=1;strokeColor=none;fillColor=none;align=center;verticalAlign=middle;whiteSpace=wrap;rounded=0;" vertex="1" parent="1">
          <mxGeometry x="-940" y="-270" width="110" height="20" as="geometry" />
        </mxCell>
        <mxCell id="jMAbbTSeN2lzTfF_vfag-38" value="" style="rounded=1;whiteSpace=wrap;html=1;" vertex="1" parent="1">
          <mxGeometry x="-65" y="-280" width="270" height="110" as="geometry" />
        </mxCell>
        <mxCell id="jMAbbTSeN2lzTfF_vfag-39" value="Arduino Sketch" style="rounded=0;whiteSpace=wrap;html=1;" vertex="1" parent="1">
          <mxGeometry x="27.5" y="-260" width="85" height="30" as="geometry" />
        </mxCell>
        <mxCell id="jMAbbTSeN2lzTfF_vfag-40" value="Sensors" style="rounded=0;whiteSpace=wrap;html=1;" vertex="1" parent="1">
          <mxGeometry x="125" y="-210" width="62.5" height="30" as="geometry" />
        </mxCell>
        <mxCell id="jMAbbTSeN2lzTfF_vfag-41" value="Actuators" style="rounded=0;whiteSpace=wrap;html=1;" vertex="1" parent="1">
          <mxGeometry x="-45" y="-210" width="80" height="30" as="geometry" />
        </mxCell>
        <mxCell id="jMAbbTSeN2lzTfF_vfag-43" value="" style="rounded=1;whiteSpace=wrap;html=1;" vertex="1" parent="1">
          <mxGeometry x="-65" y="-410" width="270" height="110" as="geometry" />
        </mxCell>
        <mxCell id="jMAbbTSeN2lzTfF_vfag-44" value="Python Main script" style="rounded=0;whiteSpace=wrap;html=1;" vertex="1" parent="1">
          <mxGeometry x="22.5" y="-360" width="85" height="30" as="geometry" />
        </mxCell>
        <mxCell id="jMAbbTSeN2lzTfF_vfag-45" value="&lt;font size=&quot;1&quot;&gt;&lt;b style=&quot;font-size: 14px&quot;&gt;Raspberry Pi&lt;/b&gt;&lt;/font&gt;" style="text;html=1;strokeColor=none;fillColor=none;align=center;verticalAlign=middle;whiteSpace=wrap;rounded=0;" vertex="1" parent="1">
          <mxGeometry x="-55" y="-400" width="110" height="20" as="geometry" />
        </mxCell>
        <mxCell id="jMAbbTSeN2lzTfF_vfag-46" value="&lt;font size=&quot;1&quot;&gt;&lt;b style=&quot;font-size: 14px&quot;&gt;Arduino&lt;/b&gt;&lt;/font&gt;" style="text;html=1;strokeColor=none;fillColor=none;align=center;verticalAlign=middle;whiteSpace=wrap;rounded=0;" vertex="1" parent="1">
          <mxGeometry x="-55" y="-280" width="70" height="20" as="geometry" />
        </mxCell>
        <mxCell id="jMAbbTSeN2lzTfF_vfag-47" value="" style="endArrow=classic;html=1;entryX=0.5;entryY=0;entryDx=0;entryDy=0;exitX=0;exitY=0.5;exitDx=0;exitDy=0;" edge="1" parent="1" source="jMAbbTSeN2lzTfF_vfag-39" target="jMAbbTSeN2lzTfF_vfag-41">
          <mxGeometry width="50" height="50" relative="1" as="geometry">
            <mxPoint x="-265" y="-230" as="sourcePoint" />
            <mxPoint x="-215" y="-280" as="targetPoint" />
            <Array as="points">
              <mxPoint x="-5" y="-245" />
            </Array>
          </mxGeometry>
        </mxCell>
        <mxCell id="jMAbbTSeN2lzTfF_vfag-48" value="" style="rounded=1;whiteSpace=wrap;html=1;" vertex="1" parent="1">
          <mxGeometry x="710" y="670" width="370" height="160" as="geometry" />
        </mxCell>
        <mxCell id="jMAbbTSeN2lzTfF_vfag-49" value="" style="rounded=1;whiteSpace=wrap;html=1;" vertex="1" parent="1">
          <mxGeometry x="660" y="880" width="440" height="190" as="geometry" />
        </mxCell>
        <mxCell id="jMAbbTSeN2lzTfF_vfag-52" value="Plant Monitoring Main Script" style="rounded=0;whiteSpace=wrap;html=1;" vertex="1" parent="1">
          <mxGeometry x="820" y="710" width="120" height="60" as="geometry" />
        </mxCell>
        <mxCell id="jMAbbTSeN2lzTfF_vfag-53" value="Arduino Sketch" style="rounded=0;whiteSpace=wrap;html=1;" vertex="1" parent="1">
          <mxGeometry x="820" y="900" width="120" height="60" as="geometry" />
        </mxCell>
        <mxCell id="jMAbbTSeN2lzTfF_vfag-57" value="" style="endArrow=classic;html=1;exitX=0.75;exitY=1;exitDx=0;exitDy=0;entryX=0.75;entryY=0;entryDx=0;entryDy=0;strokeColor=#00FF00;" edge="1" source="jMAbbTSeN2lzTfF_vfag-52" target="jMAbbTSeN2lzTfF_vfag-53" parent="1">
          <mxGeometry width="50" height="50" relative="1" as="geometry">
            <mxPoint x="860" y="870" as="sourcePoint" />
            <mxPoint x="880" y="900" as="targetPoint" />
          </mxGeometry>
        </mxCell>
        <mxCell id="jMAbbTSeN2lzTfF_vfag-59" value="" style="endArrow=classic;html=1;entryX=0.25;entryY=1;entryDx=0;entryDy=0;exitX=0.25;exitY=0;exitDx=0;exitDy=0;strokeColor=#FF0000;" edge="1" source="jMAbbTSeN2lzTfF_vfag-53" target="jMAbbTSeN2lzTfF_vfag-52" parent="1">
          <mxGeometry width="50" height="50" relative="1" as="geometry">
            <mxPoint x="800" y="880" as="sourcePoint" />
            <mxPoint x="850" y="830" as="targetPoint" />
          </mxGeometry>
        </mxCell>
        <mxCell id="jMAbbTSeN2lzTfF_vfag-62" value="Send Actuator Commands" style="text;html=1;strokeColor=none;fillColor=none;align=center;verticalAlign=middle;whiteSpace=wrap;rounded=0;" vertex="1" parent="1">
          <mxGeometry x="910" y="840" width="105" height="20" as="geometry" />
        </mxCell>
        <mxCell id="jMAbbTSeN2lzTfF_vfag-63" value="Send Sensor Data" style="text;html=1;strokeColor=none;fillColor=none;align=center;verticalAlign=middle;whiteSpace=wrap;rounded=0;" vertex="1" parent="1">
          <mxGeometry x="770" y="840" width="80" height="20" as="geometry" />
        </mxCell>
        <mxCell id="jMAbbTSeN2lzTfF_vfag-64" value="Sensors" style="rounded=0;whiteSpace=wrap;html=1;" vertex="1" parent="1">
          <mxGeometry x="915" y="990" width="120" height="60" as="geometry" />
        </mxCell>
        <mxCell id="jMAbbTSeN2lzTfF_vfag-65" value="Actuators" style="rounded=0;whiteSpace=wrap;html=1;" vertex="1" parent="1">
          <mxGeometry x="720" y="990" width="120" height="60" as="geometry" />
        </mxCell>
        <mxCell id="jMAbbTSeN2lzTfF_vfag-66" value="" style="endArrow=classic;html=1;entryX=1;entryY=0.5;entryDx=0;entryDy=0;exitX=0.75;exitY=0;exitDx=0;exitDy=0;" edge="1" source="jMAbbTSeN2lzTfF_vfag-64" target="jMAbbTSeN2lzTfF_vfag-53" parent="1">
          <mxGeometry width="50" height="50" relative="1" as="geometry">
            <mxPoint x="1080" y="990" as="sourcePoint" />
            <mxPoint x="1130" y="940" as="targetPoint" />
            <Array as="points">
              <mxPoint x="1005" y="930" />
            </Array>
          </mxGeometry>
        </mxCell>
        <mxCell id="jMAbbTSeN2lzTfF_vfag-67" value="" style="endArrow=classic;html=1;exitX=0;exitY=0.5;exitDx=0;exitDy=0;entryX=0.5;entryY=0;entryDx=0;entryDy=0;" edge="1" source="jMAbbTSeN2lzTfF_vfag-53" target="jMAbbTSeN2lzTfF_vfag-65" parent="1">
          <mxGeometry width="50" height="50" relative="1" as="geometry">
            <mxPoint x="720" y="950" as="sourcePoint" />
            <mxPoint x="770" y="900" as="targetPoint" />
            <Array as="points">
              <mxPoint x="780" y="930" />
            </Array>
          </mxGeometry>
        </mxCell>
        <mxCell id="jMAbbTSeN2lzTfF_vfag-68" value="Receive Sensor Data" style="text;html=1;strokeColor=none;fillColor=none;align=center;verticalAlign=middle;whiteSpace=wrap;rounded=0;" vertex="1" parent="1">
          <mxGeometry x="1000" y="950" width="100" height="20" as="geometry" />
        </mxCell>
        <mxCell id="jMAbbTSeN2lzTfF_vfag-69" value="Perform actuation commands" style="text;html=1;strokeColor=none;fillColor=none;align=center;verticalAlign=middle;whiteSpace=wrap;rounded=0;" vertex="1" parent="1">
          <mxGeometry x="680" y="940" width="100" height="20" as="geometry" />
        </mxCell>
        <mxCell id="jMAbbTSeN2lzTfF_vfag-70" value="&lt;font style=&quot;font-size: 15px&quot;&gt;&lt;b&gt;Raspberry Pi&lt;/b&gt;&lt;/font&gt;" style="text;html=1;strokeColor=none;fillColor=none;align=center;verticalAlign=middle;whiteSpace=wrap;rounded=0;" vertex="1" parent="1">
          <mxGeometry x="720" y="680" width="110" height="20" as="geometry" />
        </mxCell>
        <mxCell id="jMAbbTSeN2lzTfF_vfag-71" value="&lt;font style=&quot;font-size: 15px&quot;&gt;&lt;b&gt;Arduino&lt;/b&gt;&lt;/font&gt;" style="text;html=1;strokeColor=none;fillColor=none;align=center;verticalAlign=middle;whiteSpace=wrap;rounded=0;" vertex="1" parent="1">
          <mxGeometry x="680" y="890" width="110" height="20" as="geometry" />
        </mxCell>
        <mxCell id="jMAbbTSeN2lzTfF_vfag-73" value="&lt;font style=&quot;font-size: 14px&quot;&gt;&lt;b&gt;Home Light System&lt;/b&gt;&lt;/font&gt;" style="text;html=1;strokeColor=none;fillColor=none;align=center;verticalAlign=middle;whiteSpace=wrap;rounded=0;" vertex="1" parent="1">
          <mxGeometry x="650" y="640" width="130" height="20" as="geometry" />
        </mxCell>
        <mxCell id="jMAbbTSeN2lzTfF_vfag-75" value="" style="endArrow=classic;html=1;exitX=0.25;exitY=0;exitDx=0;exitDy=0;entryX=0.5;entryY=1;entryDx=0;entryDy=0;strokeColor=#FF3333;" edge="1" parent="1" source="jMAbbTSeN2lzTfF_vfag-52" target="jMAbbTSeN2lzTfF_vfag-4">
          <mxGeometry width="50" height="50" relative="1" as="geometry">
            <mxPoint x="10" y="560" as="sourcePoint" />
            <mxPoint x="205" y="420" as="targetPoint" />
            <Array as="points">
              <mxPoint x="850" y="560" />
              <mxPoint x="205" y="560" />
            </Array>
          </mxGeometry>
        </mxCell>
        <mxCell id="jMAbbTSeN2lzTfF_vfag-81" value="" style="rounded=0;whiteSpace=wrap;html=1;" vertex="1" parent="1">
          <mxGeometry x="520" y="140" width="280" height="270" as="geometry" />
        </mxCell>
        <mxCell id="jMAbbTSeN2lzTfF_vfag-82" value="" style="endArrow=classic;html=1;exitX=1;exitY=0.5;exitDx=0;exitDy=0;exitPerimeter=0;entryX=0;entryY=0.5;entryDx=0;entryDy=0;" edge="1" parent="1" source="jMAbbTSeN2lzTfF_vfag-6" target="jMAbbTSeN2lzTfF_vfag-83">
          <mxGeometry width="50" height="50" relative="1" as="geometry">
            <mxPoint x="480" y="460" as="sourcePoint" />
            <mxPoint x="540" y="360" as="targetPoint" />
          </mxGeometry>
        </mxCell>
        <mxCell id="jMAbbTSeN2lzTfF_vfag-83" value="Dashboard" style="rounded=1;whiteSpace=wrap;html=1;" vertex="1" parent="1">
          <mxGeometry x="610" y="180" width="120" height="60" as="geometry" />
        </mxCell>
        <mxCell id="jMAbbTSeN2lzTfF_vfag-84" value="Manual Triggers/Threshold Change" style="rounded=1;whiteSpace=wrap;html=1;" vertex="1" parent="1">
          <mxGeometry x="610" y="330" width="120" height="60" as="geometry" />
        </mxCell>
        <mxCell id="jMAbbTSeN2lzTfF_vfag-86" value="&lt;font style=&quot;font-size: 14px&quot;&gt;&lt;b&gt;Website&lt;/b&gt;&lt;/font&gt;" style="text;html=1;strokeColor=none;fillColor=none;align=center;verticalAlign=middle;whiteSpace=wrap;rounded=0;" vertex="1" parent="1">
          <mxGeometry x="500" y="150" width="130" height="20" as="geometry" />
        </mxCell>
        <mxCell id="jMAbbTSeN2lzTfF_vfag-88" value="" style="endArrow=classic;html=1;entryX=1;entryY=0.5;entryDx=0;entryDy=0;exitX=0;exitY=0.5;exitDx=0;exitDy=0;" edge="1" parent="1" source="jMAbbTSeN2lzTfF_vfag-84" target="jMAbbTSeN2lzTfF_vfag-4">
          <mxGeometry width="50" height="50" relative="1" as="geometry">
            <mxPoint x="550" y="530" as="sourcePoint" />
            <mxPoint x="600" y="480" as="targetPoint" />
          </mxGeometry>
        </mxCell>
        <mxCell id="jMAbbTSeN2lzTfF_vfag-89" value="&lt;b&gt;Thingsboard IOT Platform&lt;/b&gt;" style="text;html=1;strokeColor=none;fillColor=none;align=center;verticalAlign=middle;whiteSpace=wrap;rounded=0;" vertex="1" parent="1">
          <mxGeometry x="-170" y="130" width="160" height="20" as="geometry" />
        </mxCell>
        <mxCell id="jMAbbTSeN2lzTfF_vfag-90" value="" style="rounded=0;whiteSpace=wrap;html=1;" vertex="1" parent="1">
          <mxGeometry x="-510" y="130" width="280" height="270" as="geometry" />
        </mxCell>
        <mxCell id="jMAbbTSeN2lzTfF_vfag-91" value="&lt;b&gt;Telegram Bot API&lt;/b&gt;" style="text;html=1;strokeColor=none;fillColor=none;align=left;verticalAlign=middle;whiteSpace=wrap;rounded=0;" vertex="1" parent="1">
          <mxGeometry x="-500" y="140" width="160" height="20" as="geometry" />
        </mxCell>
        <mxCell id="jMAbbTSeN2lzTfF_vfag-92" value="&lt;span&gt;Manual Triggers/Threshold Change&lt;/span&gt;" style="rounded=0;whiteSpace=wrap;html=1;" vertex="1" parent="1">
          <mxGeometry x="-450" y="330" width="120" height="60" as="geometry" />
        </mxCell>
        <mxCell id="jMAbbTSeN2lzTfF_vfag-93" value="" style="endArrow=classic;html=1;exitX=1;exitY=0.5;exitDx=0;exitDy=0;entryX=0;entryY=0.5;entryDx=0;entryDy=0;" edge="1" parent="1" source="jMAbbTSeN2lzTfF_vfag-92" target="jMAbbTSeN2lzTfF_vfag-4">
          <mxGeometry width="50" height="50" relative="1" as="geometry">
            <mxPoint x="-80" y="530" as="sourcePoint" />
            <mxPoint x="-30" y="480" as="targetPoint" />
          </mxGeometry>
        </mxCell>
        <mxCell id="jMAbbTSeN2lzTfF_vfag-94" value="User Input" style="rounded=0;whiteSpace=wrap;html=1;" vertex="1" parent="1">
          <mxGeometry x="-450" y="190" width="120" height="60" as="geometry" />
        </mxCell>
        <mxCell id="jMAbbTSeN2lzTfF_vfag-95" value="" style="endArrow=classic;html=1;exitX=0.5;exitY=1;exitDx=0;exitDy=0;entryX=0.5;entryY=0;entryDx=0;entryDy=0;" edge="1" parent="1" source="jMAbbTSeN2lzTfF_vfag-94" target="jMAbbTSeN2lzTfF_vfag-92">
          <mxGeometry width="50" height="50" relative="1" as="geometry">
            <mxPoint x="-370" y="520" as="sourcePoint" />
            <mxPoint x="-320" y="470" as="targetPoint" />
          </mxGeometry>
        </mxCell>
        <mxCell id="jMAbbTSeN2lzTfF_vfag-96" value="" style="endArrow=classic;html=1;exitX=0.5;exitY=1;exitDx=0;exitDy=0;entryX=0.5;entryY=0;entryDx=0;entryDy=0;" edge="1" parent="1" source="jMAbbTSeN2lzTfF_vfag-83" target="jMAbbTSeN2lzTfF_vfag-84">
          <mxGeometry width="50" height="50" relative="1" as="geometry">
            <mxPoint x="660" y="540" as="sourcePoint" />
            <mxPoint x="710" y="490" as="targetPoint" />
          </mxGeometry>
        </mxCell>
        <mxCell id="jMAbbTSeN2lzTfF_vfag-98" value="" style="rounded=0;whiteSpace=wrap;html=1;" vertex="1" parent="1">
          <mxGeometry x="100" y="630" width="480" height="460" as="geometry" />
        </mxCell>
        <mxCell id="jMAbbTSeN2lzTfF_vfag-99" value="" style="rounded=1;whiteSpace=wrap;html=1;" vertex="1" parent="1">
          <mxGeometry x="180" y="670" width="370" height="160" as="geometry" />
        </mxCell>
        <mxCell id="jMAbbTSeN2lzTfF_vfag-100" value="" style="rounded=1;whiteSpace=wrap;html=1;" vertex="1" parent="1">
          <mxGeometry x="130" y="880" width="440" height="190" as="geometry" />
        </mxCell>
        <mxCell id="jMAbbTSeN2lzTfF_vfag-101" value="Plant Monitoring Main Script" style="rounded=0;whiteSpace=wrap;html=1;" vertex="1" parent="1">
          <mxGeometry x="290" y="710" width="120" height="60" as="geometry" />
        </mxCell>
        <mxCell id="jMAbbTSeN2lzTfF_vfag-102" value="Arduino Sketch" style="rounded=0;whiteSpace=wrap;html=1;" vertex="1" parent="1">
          <mxGeometry x="290" y="900" width="120" height="60" as="geometry" />
        </mxCell>
        <mxCell id="jMAbbTSeN2lzTfF_vfag-103" value="" style="endArrow=classic;html=1;exitX=0.75;exitY=1;exitDx=0;exitDy=0;entryX=0.75;entryY=0;entryDx=0;entryDy=0;strokeColor=#00FF00;" edge="1" source="jMAbbTSeN2lzTfF_vfag-101" target="jMAbbTSeN2lzTfF_vfag-102" parent="1">
          <mxGeometry width="50" height="50" relative="1" as="geometry">
            <mxPoint x="330" y="870" as="sourcePoint" />
            <mxPoint x="350" y="900" as="targetPoint" />
          </mxGeometry>
        </mxCell>
        <mxCell id="jMAbbTSeN2lzTfF_vfag-104" value="" style="endArrow=classic;html=1;entryX=0.25;entryY=1;entryDx=0;entryDy=0;exitX=0.25;exitY=0;exitDx=0;exitDy=0;strokeColor=#FF0000;" edge="1" source="jMAbbTSeN2lzTfF_vfag-102" target="jMAbbTSeN2lzTfF_vfag-101" parent="1">
          <mxGeometry width="50" height="50" relative="1" as="geometry">
            <mxPoint x="270" y="880" as="sourcePoint" />
            <mxPoint x="320" y="830" as="targetPoint" />
          </mxGeometry>
        </mxCell>
        <mxCell id="jMAbbTSeN2lzTfF_vfag-105" value="Send Actuator Commands" style="text;html=1;strokeColor=none;fillColor=none;align=center;verticalAlign=middle;whiteSpace=wrap;rounded=0;" vertex="1" parent="1">
          <mxGeometry x="380" y="840" width="105" height="20" as="geometry" />
        </mxCell>
        <mxCell id="jMAbbTSeN2lzTfF_vfag-106" value="Send Sensor Data" style="text;html=1;strokeColor=none;fillColor=none;align=center;verticalAlign=middle;whiteSpace=wrap;rounded=0;" vertex="1" parent="1">
          <mxGeometry x="240" y="840" width="80" height="20" as="geometry" />
        </mxCell>
        <mxCell id="jMAbbTSeN2lzTfF_vfag-107" value="Sensors" style="rounded=0;whiteSpace=wrap;html=1;" vertex="1" parent="1">
          <mxGeometry x="385" y="990" width="120" height="60" as="geometry" />
        </mxCell>
        <mxCell id="jMAbbTSeN2lzTfF_vfag-108" value="Actuators" style="rounded=0;whiteSpace=wrap;html=1;" vertex="1" parent="1">
          <mxGeometry x="190" y="990" width="120" height="60" as="geometry" />
        </mxCell>
        <mxCell id="jMAbbTSeN2lzTfF_vfag-109" value="" style="endArrow=classic;html=1;entryX=1;entryY=0.5;entryDx=0;entryDy=0;exitX=0.75;exitY=0;exitDx=0;exitDy=0;" edge="1" source="jMAbbTSeN2lzTfF_vfag-107" target="jMAbbTSeN2lzTfF_vfag-102" parent="1">
          <mxGeometry width="50" height="50" relative="1" as="geometry">
            <mxPoint x="550" y="990" as="sourcePoint" />
            <mxPoint x="600" y="940" as="targetPoint" />
            <Array as="points">
              <mxPoint x="475" y="930" />
            </Array>
          </mxGeometry>
        </mxCell>
        <mxCell id="jMAbbTSeN2lzTfF_vfag-110" value="Receive Sensor Data" style="text;html=1;strokeColor=none;fillColor=none;align=center;verticalAlign=middle;whiteSpace=wrap;rounded=0;" vertex="1" parent="1">
          <mxGeometry x="470" y="950" width="100" height="20" as="geometry" />
        </mxCell>
        <mxCell id="jMAbbTSeN2lzTfF_vfag-111" value="Perform actuation commands" style="text;html=1;strokeColor=none;fillColor=none;align=center;verticalAlign=middle;whiteSpace=wrap;rounded=0;" vertex="1" parent="1">
          <mxGeometry x="150" y="940" width="100" height="20" as="geometry" />
        </mxCell>
        <mxCell id="jMAbbTSeN2lzTfF_vfag-112" value="&lt;font style=&quot;font-size: 15px&quot;&gt;&lt;b&gt;Raspberry Pi&lt;/b&gt;&lt;/font&gt;" style="text;html=1;strokeColor=none;fillColor=none;align=center;verticalAlign=middle;whiteSpace=wrap;rounded=0;" vertex="1" parent="1">
          <mxGeometry x="190" y="680" width="110" height="20" as="geometry" />
        </mxCell>
        <mxCell id="jMAbbTSeN2lzTfF_vfag-113" value="&lt;font style=&quot;font-size: 15px&quot;&gt;&lt;b&gt;Arduino&lt;/b&gt;&lt;/font&gt;" style="text;html=1;strokeColor=none;fillColor=none;align=center;verticalAlign=middle;whiteSpace=wrap;rounded=0;" vertex="1" parent="1">
          <mxGeometry x="150" y="890" width="110" height="20" as="geometry" />
        </mxCell>
        <mxCell id="jMAbbTSeN2lzTfF_vfag-114" value="&lt;font style=&quot;font-size: 14px&quot;&gt;&lt;b&gt;Gardening System&lt;/b&gt;&lt;/font&gt;" style="text;html=1;strokeColor=none;fillColor=none;align=center;verticalAlign=middle;whiteSpace=wrap;rounded=0;" vertex="1" parent="1">
          <mxGeometry x="120" y="640" width="130" height="20" as="geometry" />
        </mxCell>
        <mxCell id="jMAbbTSeN2lzTfF_vfag-115" value="" style="rounded=0;whiteSpace=wrap;html=1;" vertex="1" parent="1">
          <mxGeometry x="-420" y="630" width="480" height="460" as="geometry" />
        </mxCell>
        <mxCell id="jMAbbTSeN2lzTfF_vfag-116" value="" style="rounded=1;whiteSpace=wrap;html=1;" vertex="1" parent="1">
          <mxGeometry x="-340" y="670" width="370" height="160" as="geometry" />
        </mxCell>
        <mxCell id="jMAbbTSeN2lzTfF_vfag-117" value="" style="rounded=1;whiteSpace=wrap;html=1;" vertex="1" parent="1">
          <mxGeometry x="-390" y="880" width="440" height="190" as="geometry" />
        </mxCell>
        <mxCell id="jMAbbTSeN2lzTfF_vfag-118" value="Plant Monitoring Main Script" style="rounded=0;whiteSpace=wrap;html=1;" vertex="1" parent="1">
          <mxGeometry x="-230" y="710" width="120" height="60" as="geometry" />
        </mxCell>
        <mxCell id="jMAbbTSeN2lzTfF_vfag-119" value="Arduino Sketch" style="rounded=0;whiteSpace=wrap;html=1;" vertex="1" parent="1">
          <mxGeometry x="-230" y="900" width="120" height="60" as="geometry" />
        </mxCell>
        <mxCell id="jMAbbTSeN2lzTfF_vfag-120" value="" style="endArrow=classic;html=1;exitX=0.75;exitY=1;exitDx=0;exitDy=0;entryX=0.75;entryY=0;entryDx=0;entryDy=0;strokeColor=#00FF00;" edge="1" source="jMAbbTSeN2lzTfF_vfag-118" target="jMAbbTSeN2lzTfF_vfag-119" parent="1">
          <mxGeometry width="50" height="50" relative="1" as="geometry">
            <mxPoint x="-190" y="870" as="sourcePoint" />
            <mxPoint x="-170" y="900" as="targetPoint" />
          </mxGeometry>
        </mxCell>
        <mxCell id="jMAbbTSeN2lzTfF_vfag-121" value="" style="endArrow=classic;html=1;entryX=0.25;entryY=1;entryDx=0;entryDy=0;exitX=0.25;exitY=0;exitDx=0;exitDy=0;fillColor=#f8cecc;strokeColor=#b85450;" edge="1" source="jMAbbTSeN2lzTfF_vfag-119" target="jMAbbTSeN2lzTfF_vfag-118" parent="1">
          <mxGeometry width="50" height="50" relative="1" as="geometry">
            <mxPoint x="-250" y="880" as="sourcePoint" />
            <mxPoint x="-200" y="830" as="targetPoint" />
          </mxGeometry>
        </mxCell>
        <mxCell id="jMAbbTSeN2lzTfF_vfag-122" value="Send Actuator Commands" style="text;html=1;strokeColor=none;fillColor=none;align=center;verticalAlign=middle;whiteSpace=wrap;rounded=0;" vertex="1" parent="1">
          <mxGeometry x="-140" y="840" width="105" height="20" as="geometry" />
        </mxCell>
        <mxCell id="jMAbbTSeN2lzTfF_vfag-123" value="Send Sensor Data" style="text;html=1;strokeColor=none;fillColor=none;align=center;verticalAlign=middle;whiteSpace=wrap;rounded=0;" vertex="1" parent="1">
          <mxGeometry x="-280" y="840" width="80" height="20" as="geometry" />
        </mxCell>
        <mxCell id="jMAbbTSeN2lzTfF_vfag-124" value="Sensors" style="rounded=0;whiteSpace=wrap;html=1;" vertex="1" parent="1">
          <mxGeometry x="-135" y="990" width="120" height="60" as="geometry" />
        </mxCell>
        <mxCell id="jMAbbTSeN2lzTfF_vfag-125" value="Actuators" style="rounded=0;whiteSpace=wrap;html=1;" vertex="1" parent="1">
          <mxGeometry x="-330" y="990" width="120" height="60" as="geometry" />
        </mxCell>
        <mxCell id="jMAbbTSeN2lzTfF_vfag-126" value="" style="endArrow=classic;html=1;entryX=1;entryY=0.5;entryDx=0;entryDy=0;exitX=0.75;exitY=0;exitDx=0;exitDy=0;" edge="1" source="jMAbbTSeN2lzTfF_vfag-124" target="jMAbbTSeN2lzTfF_vfag-119" parent="1">
          <mxGeometry width="50" height="50" relative="1" as="geometry">
            <mxPoint x="30" y="990" as="sourcePoint" />
            <mxPoint x="80" y="940" as="targetPoint" />
            <Array as="points">
              <mxPoint x="-45" y="930" />
            </Array>
          </mxGeometry>
        </mxCell>
        <mxCell id="jMAbbTSeN2lzTfF_vfag-127" value="Receive Sensor Data" style="text;html=1;strokeColor=none;fillColor=none;align=center;verticalAlign=middle;whiteSpace=wrap;rounded=0;" vertex="1" parent="1">
          <mxGeometry x="-50" y="950" width="100" height="20" as="geometry" />
        </mxCell>
        <mxCell id="jMAbbTSeN2lzTfF_vfag-128" value="Perform actuation commands" style="text;html=1;strokeColor=none;fillColor=none;align=center;verticalAlign=middle;whiteSpace=wrap;rounded=0;" vertex="1" parent="1">
          <mxGeometry x="-370" y="940" width="100" height="20" as="geometry" />
        </mxCell>
        <mxCell id="jMAbbTSeN2lzTfF_vfag-129" value="&lt;font style=&quot;font-size: 15px&quot;&gt;&lt;b&gt;Raspberry Pi&lt;/b&gt;&lt;/font&gt;" style="text;html=1;strokeColor=none;fillColor=none;align=center;verticalAlign=middle;whiteSpace=wrap;rounded=0;" vertex="1" parent="1">
          <mxGeometry x="-330" y="680" width="110" height="20" as="geometry" />
        </mxCell>
        <mxCell id="jMAbbTSeN2lzTfF_vfag-130" value="&lt;font style=&quot;font-size: 15px&quot;&gt;&lt;b&gt;Arduino&lt;/b&gt;&lt;/font&gt;" style="text;html=1;strokeColor=none;fillColor=none;align=center;verticalAlign=middle;whiteSpace=wrap;rounded=0;" vertex="1" parent="1">
          <mxGeometry x="-370" y="890" width="110" height="20" as="geometry" />
        </mxCell>
        <mxCell id="jMAbbTSeN2lzTfF_vfag-131" value="&lt;font style=&quot;font-size: 14px&quot;&gt;&lt;b&gt;Fire Alarm System&lt;/b&gt;&lt;/font&gt;" style="text;html=1;strokeColor=none;fillColor=none;align=center;verticalAlign=middle;whiteSpace=wrap;rounded=0;" vertex="1" parent="1">
          <mxGeometry x="-400" y="640" width="130" height="20" as="geometry" />
        </mxCell>
        <mxCell id="jMAbbTSeN2lzTfF_vfag-132" value="" style="rounded=0;whiteSpace=wrap;html=1;" vertex="1" parent="1">
          <mxGeometry x="-960" y="630" width="480" height="460" as="geometry" />
        </mxCell>
        <mxCell id="jMAbbTSeN2lzTfF_vfag-133" value="" style="rounded=1;whiteSpace=wrap;html=1;" vertex="1" parent="1">
          <mxGeometry x="-880" y="670" width="370" height="160" as="geometry" />
        </mxCell>
        <mxCell id="jMAbbTSeN2lzTfF_vfag-134" value="" style="rounded=1;whiteSpace=wrap;html=1;" vertex="1" parent="1">
          <mxGeometry x="-930" y="880" width="440" height="190" as="geometry" />
        </mxCell>
        <mxCell id="jMAbbTSeN2lzTfF_vfag-135" value="Plant Monitoring Main Script" style="rounded=0;whiteSpace=wrap;html=1;" vertex="1" parent="1">
          <mxGeometry x="-770" y="710" width="120" height="60" as="geometry" />
        </mxCell>
        <mxCell id="jMAbbTSeN2lzTfF_vfag-136" value="Arduino Sketch" style="rounded=0;whiteSpace=wrap;html=1;" vertex="1" parent="1">
          <mxGeometry x="-770" y="900" width="120" height="60" as="geometry" />
        </mxCell>
        <mxCell id="jMAbbTSeN2lzTfF_vfag-137" value="" style="endArrow=classic;html=1;exitX=0.75;exitY=1;exitDx=0;exitDy=0;entryX=0.75;entryY=0;entryDx=0;entryDy=0;strokeColor=#00FF00;" edge="1" source="jMAbbTSeN2lzTfF_vfag-135" target="jMAbbTSeN2lzTfF_vfag-136" parent="1">
          <mxGeometry width="50" height="50" relative="1" as="geometry">
            <mxPoint x="-730" y="870" as="sourcePoint" />
            <mxPoint x="-710" y="900" as="targetPoint" />
          </mxGeometry>
        </mxCell>
        <mxCell id="jMAbbTSeN2lzTfF_vfag-138" value="" style="endArrow=classic;html=1;entryX=0.25;entryY=1;entryDx=0;entryDy=0;exitX=0.25;exitY=0;exitDx=0;exitDy=0;strokeColor=#FF0000;" edge="1" source="jMAbbTSeN2lzTfF_vfag-136" target="jMAbbTSeN2lzTfF_vfag-135" parent="1">
          <mxGeometry width="50" height="50" relative="1" as="geometry">
            <mxPoint x="-790" y="880" as="sourcePoint" />
            <mxPoint x="-740" y="830" as="targetPoint" />
          </mxGeometry>
        </mxCell>
        <mxCell id="jMAbbTSeN2lzTfF_vfag-139" value="Send Actuator Commands" style="text;html=1;strokeColor=none;fillColor=none;align=center;verticalAlign=middle;whiteSpace=wrap;rounded=0;" vertex="1" parent="1">
          <mxGeometry x="-680" y="840" width="105" height="20" as="geometry" />
        </mxCell>
        <mxCell id="jMAbbTSeN2lzTfF_vfag-140" value="Send Sensor Data" style="text;html=1;strokeColor=none;fillColor=none;align=center;verticalAlign=middle;whiteSpace=wrap;rounded=0;" vertex="1" parent="1">
          <mxGeometry x="-820" y="840" width="80" height="20" as="geometry" />
        </mxCell>
        <mxCell id="jMAbbTSeN2lzTfF_vfag-141" value="Sensors" style="rounded=0;whiteSpace=wrap;html=1;" vertex="1" parent="1">
          <mxGeometry x="-675" y="990" width="120" height="60" as="geometry" />
        </mxCell>
        <mxCell id="jMAbbTSeN2lzTfF_vfag-142" value="Actuators" style="rounded=0;whiteSpace=wrap;html=1;" vertex="1" parent="1">
          <mxGeometry x="-870" y="990" width="120" height="60" as="geometry" />
        </mxCell>
        <mxCell id="jMAbbTSeN2lzTfF_vfag-143" value="" style="endArrow=classic;html=1;entryX=1;entryY=0.5;entryDx=0;entryDy=0;exitX=0.75;exitY=0;exitDx=0;exitDy=0;" edge="1" source="jMAbbTSeN2lzTfF_vfag-141" target="jMAbbTSeN2lzTfF_vfag-136" parent="1">
          <mxGeometry width="50" height="50" relative="1" as="geometry">
            <mxPoint x="-510" y="990" as="sourcePoint" />
            <mxPoint x="-460" y="940" as="targetPoint" />
            <Array as="points">
              <mxPoint x="-585" y="930" />
            </Array>
          </mxGeometry>
        </mxCell>
        <mxCell id="jMAbbTSeN2lzTfF_vfag-144" value="Receive Sensor Data" style="text;html=1;strokeColor=none;fillColor=none;align=center;verticalAlign=middle;whiteSpace=wrap;rounded=0;" vertex="1" parent="1">
          <mxGeometry x="-590" y="950" width="100" height="20" as="geometry" />
        </mxCell>
        <mxCell id="jMAbbTSeN2lzTfF_vfag-145" value="Perform actuation commands" style="text;html=1;strokeColor=none;fillColor=none;align=center;verticalAlign=middle;whiteSpace=wrap;rounded=0;" vertex="1" parent="1">
          <mxGeometry x="-910" y="940" width="100" height="20" as="geometry" />
        </mxCell>
        <mxCell id="jMAbbTSeN2lzTfF_vfag-146" value="&lt;font style=&quot;font-size: 15px&quot;&gt;&lt;b&gt;Raspberry Pi&lt;/b&gt;&lt;/font&gt;" style="text;html=1;strokeColor=none;fillColor=none;align=center;verticalAlign=middle;whiteSpace=wrap;rounded=0;" vertex="1" parent="1">
          <mxGeometry x="-870" y="680" width="110" height="20" as="geometry" />
        </mxCell>
        <mxCell id="jMAbbTSeN2lzTfF_vfag-147" value="&lt;font style=&quot;font-size: 15px&quot;&gt;&lt;b&gt;Arduino&lt;/b&gt;&lt;/font&gt;" style="text;html=1;strokeColor=none;fillColor=none;align=center;verticalAlign=middle;whiteSpace=wrap;rounded=0;" vertex="1" parent="1">
          <mxGeometry x="-910" y="890" width="110" height="20" as="geometry" />
        </mxCell>
        <mxCell id="jMAbbTSeN2lzTfF_vfag-148" value="&lt;font style=&quot;font-size: 14px&quot;&gt;&lt;b&gt;Home Ventilation System&lt;/b&gt;&lt;/font&gt;" style="text;html=1;strokeColor=none;fillColor=none;align=center;verticalAlign=middle;whiteSpace=wrap;rounded=0;" vertex="1" parent="1">
          <mxGeometry x="-940" y="640" width="190" height="20" as="geometry" />
        </mxCell>
        <mxCell id="jMAbbTSeN2lzTfF_vfag-150" value="" style="endArrow=none;html=1;exitX=0.25;exitY=0;exitDx=0;exitDy=0;strokeColor=#FF3333;" edge="1" parent="1" source="jMAbbTSeN2lzTfF_vfag-101">
          <mxGeometry width="50" height="50" relative="1" as="geometry">
            <mxPoint x="180" y="580" as="sourcePoint" />
            <mxPoint x="210" y="560" as="targetPoint" />
            <Array as="points">
              <mxPoint x="320" y="560" />
            </Array>
          </mxGeometry>
        </mxCell>
        <mxCell id="jMAbbTSeN2lzTfF_vfag-151" value="" style="endArrow=none;html=1;entryX=0.25;entryY=0;entryDx=0;entryDy=0;strokeColor=#FF3333;" edge="1" parent="1" target="jMAbbTSeN2lzTfF_vfag-118">
          <mxGeometry width="50" height="50" relative="1" as="geometry">
            <mxPoint x="210" y="560" as="sourcePoint" />
            <mxPoint x="10" y="490" as="targetPoint" />
            <Array as="points">
              <mxPoint x="-200" y="560" />
            </Array>
          </mxGeometry>
        </mxCell>
        <mxCell id="jMAbbTSeN2lzTfF_vfag-152" value="" style="endArrow=none;html=1;exitX=0.25;exitY=0;exitDx=0;exitDy=0;strokeColor=#FF3333;" edge="1" parent="1" source="jMAbbTSeN2lzTfF_vfag-135">
          <mxGeometry width="50" height="50" relative="1" as="geometry">
            <mxPoint x="-690" y="540" as="sourcePoint" />
            <mxPoint x="-140" y="560" as="targetPoint" />
            <Array as="points">
              <mxPoint x="-740" y="560" />
            </Array>
          </mxGeometry>
        </mxCell>
        <mxCell id="jMAbbTSeN2lzTfF_vfag-154" value="" style="endArrow=classic;html=1;exitX=0.5;exitY=1;exitDx=0;exitDy=0;fillColor=#d5e8d4;strokeColor=#00CC00;" edge="1" parent="1" source="jMAbbTSeN2lzTfF_vfag-5">
          <mxGeometry width="50" height="50" relative="1" as="geometry">
            <mxPoint x="-230" y="510" as="sourcePoint" />
            <mxPoint x="-680" y="710" as="targetPoint" />
            <Array as="points">
              <mxPoint x="-40" y="470" />
              <mxPoint x="-540" y="470" />
              <mxPoint x="-680" y="470" />
            </Array>
          </mxGeometry>
        </mxCell>
        <mxCell id="jMAbbTSeN2lzTfF_vfag-155" value="" style="endArrow=classic;html=1;entryX=0.75;entryY=0;entryDx=0;entryDy=0;fillColor=#d5e8d4;strokeColor=#00CC00;" edge="1" parent="1" target="jMAbbTSeN2lzTfF_vfag-118">
          <mxGeometry width="50" height="50" relative="1" as="geometry">
            <mxPoint x="-140" y="470" as="sourcePoint" />
            <mxPoint x="140" y="470" as="targetPoint" />
          </mxGeometry>
        </mxCell>
        <mxCell id="jMAbbTSeN2lzTfF_vfag-156" value="" style="endArrow=classic;html=1;entryX=0.75;entryY=0;entryDx=0;entryDy=0;fillColor=#d5e8d4;strokeColor=#00CC00;" edge="1" parent="1" target="jMAbbTSeN2lzTfF_vfag-101">
          <mxGeometry width="50" height="50" relative="1" as="geometry">
            <mxPoint x="-60" y="470" as="sourcePoint" />
            <mxPoint x="130" y="470" as="targetPoint" />
            <Array as="points">
              <mxPoint x="380" y="470" />
            </Array>
          </mxGeometry>
        </mxCell>
        <mxCell id="jMAbbTSeN2lzTfF_vfag-157" value="" style="endArrow=classic;html=1;entryX=0.75;entryY=0;entryDx=0;entryDy=0;fillColor=#d5e8d4;strokeColor=#00CC00;" edge="1" parent="1" target="jMAbbTSeN2lzTfF_vfag-52">
          <mxGeometry width="50" height="50" relative="1" as="geometry">
            <mxPoint x="350" y="470" as="sourcePoint" />
            <mxPoint x="690" y="470" as="targetPoint" />
            <Array as="points">
              <mxPoint x="910" y="470" />
            </Array>
          </mxGeometry>
        </mxCell>
        <mxCell id="jMAbbTSeN2lzTfF_vfag-160" value="" style="rounded=0;whiteSpace=wrap;html=1;" vertex="1" parent="1">
          <mxGeometry x="-895" y="120" width="215" height="110" as="geometry" />
        </mxCell>
        <mxCell id="jMAbbTSeN2lzTfF_vfag-162" value="" style="endArrow=classic;html=1;strokeColor=#00CC00;" edge="1" parent="1">
          <mxGeometry width="50" height="50" relative="1" as="geometry">
            <mxPoint x="-885" y="150" as="sourcePoint" />
            <mxPoint x="-815" y="150" as="targetPoint" />
          </mxGeometry>
        </mxCell>
        <mxCell id="jMAbbTSeN2lzTfF_vfag-163" value="" style="endArrow=classic;html=1;strokeColor=#FF0000;" edge="1" parent="1">
          <mxGeometry width="50" height="50" relative="1" as="geometry">
            <mxPoint x="-885" y="200" as="sourcePoint" />
            <mxPoint x="-815" y="200" as="targetPoint" />
          </mxGeometry>
        </mxCell>
        <mxCell id="jMAbbTSeN2lzTfF_vfag-164" value="Actuator Commands&lt;br&gt;Flow" style="text;html=1;strokeColor=none;fillColor=none;align=center;verticalAlign=middle;whiteSpace=wrap;rounded=0;" vertex="1" parent="1">
          <mxGeometry x="-822.5" y="140" width="135" height="20" as="geometry" />
        </mxCell>
        <mxCell id="jMAbbTSeN2lzTfF_vfag-165" value="Sensor Data Flow" style="text;html=1;strokeColor=none;fillColor=none;align=center;verticalAlign=middle;whiteSpace=wrap;rounded=0;" vertex="1" parent="1">
          <mxGeometry x="-795" y="190" width="80" height="20" as="geometry" />
        </mxCell>
      </root>
    </mxGraphModel>
  </diagram>
</mxfile>
